<svg xmlns="http://www.w3.org/2000/svg" width="43" height="41" viewBox="0 0 42.1 40.2"><title>portfolio-hero</title><path d="M42.2 3.9c.1-.6-.6-2-1.5-2s-1.6.4-1.7.8-.6 1.2-.5 1.4L40 5.3a.6.6 0 0 1 0 .8l-1.7 2.5c-.2.2-1.1-.8-1.8-.8s-.5-1.1-1-1.4a4.9 4.9 0 0 0-1.3-.3 1.3 1.3 0 0 1 .3-.7 1.5 1.5 0 0 0 .3-.7h.5s-.2-1-.2-1.2.8-3.2-1.8-3.3-3.2 1.3-3.2 1.8a3.4 3.4 0 0 1-.4 1.9 5.1 5.1 0 0 1-1.9.3 4.8 4.8 0 0 0-2.3.1 1.7 1.7 0 0 1-1.7-.2 6.6 6.6 0 0 0-3.4-.5 5.3 5.3 0 0 1-2.3-.2 2.5 2.5 0 0 0-2.2 1.5 20.3 20.3 0 0 1-2.5 3.5 5.4 5.4 0 0 0-1 1.7c0 .4-1.1 1.3-1.1 1.7s1 1.6 1.6 1.6 1.5-.2 1.6-1.1a9.1 9.1 0 0 1 .2-2.5 10.7 10.7 0 0 1 3.2-2.1 3.3 3.3 0 0 0 1.6-1.2 4.9 4.9 0 0 0 1.2.5 23.7 23.7 0 0 0-5.1 5c-4 5.5-12.3 7.2-14.7 7.8a3.3 3.3 0 0 0-.1 4.1c1.7 2 1.6 3.3 1.6 3.3s9.6-5.9 14.3-11.7c2.3-2.7 4.5-5.2 6.4-7.2-.4 1.5-1.4 4.8-2.2 5.4s-2.9 3-2.9 4-3.9 5-4.4 6.9-2.5 1.1-3.4 2.1-2.4 4.7-4.5 6.1H4.4c-.6-.1-.9.3-1.2 1.4a13.9 13.9 0 0 1-1.1 3c-.2.3 0 3 .5 3h.6a9.2 9.2 0 0 1 0-1.6 11.1 11.1 0 0 0 1.9-2.4 32.6 32.6 0 0 1 4.3-3.6c1.4-.8 3.4-2.5 4-2.7s1.1-.2 1.3-.5l5-4.7c0 1.1.1 3.2 0 3.4a12.6 12.6 0 0 0-.8 3.2c0 .8.3.5.7-.2s2.5-4.1 4.2-4.9 6.6-1.9 7.1-2 3.7-.7 3.3-3.8-7.1-4.1-7.7-4.2-.4-.7-.1-.9 2.8-2.4 3.1-2.9 1.7-.8 2.6-2.1a1.3 1.3 0 0 1 1.6 0c.5.3 4.5 2.2 6.3 1.6s1.5-1.7 1.5-2.4.6-5 .7-5.6zM27.7 21c.5-.1.8.4 0 .5s-3.4 2-4 2.4a12.3 12.3 0 0 1-3.5.1l2.9-2.7z" fill="#fff"/></svg>
